HIERARCHY
ROOT Hips
{
	OFFSET -338.882294 -555.210510 88.995560
	CHANNELS 6 Xposition Yposition Zposition Zrotation Yrotation Xrotation
	JOINT Spine
	{
		OFFSET 0.000000 2.080078 8.814247
		CHANNELS 6 Xposition Yposition Zposition Zrotation Yrotation Xrotation
		JOINT Spine1
		{
			OFFSET 0.000000 0.000000 8.844139
			CHANNELS 6 Xposition Yposition Zposition Zrotation Yrotation Xrotation
			JOINT Spine2
			{
				OFFSET 0.000000 0.000000 11.682266
				CHANNELS 6 Xposition Yposition Zposition Zrotation Yrotation Xrotation
				JOINT Spine3
				{
					OFFSET 0.000000 0.000000 11.746704
					CHANNELS 6 Xposition Yposition Zposition Zrotation Yrotation Xrotation
					JOINT Neck
					{
						OFFSET 0.000000 0.000000 17.658264
						CHANNELS 6 Xposition Yposition Zposition Zrotation Yrotation Xrotation
						JOINT Neck1
						{
							OFFSET 0.000000 0.000000 5.101517
							CHANNELS 6 Xposition Yposition Zposition Zrotation Yrotation Xrotation
							JOINT Head
							{
								OFFSET 0.000000 0.000000 5.101517
								CHANNELS 6 Xposition Yposition Zposition Zrotation Yrotation Xrotation
								JOINT HeadEnd
								{
									OFFSET 0.000000 0.000000 11.655090
									CHANNELS 6 Xposition Yposition Zposition Zrotation Yrotation Xrotation
									End Site
									{
										OFFSET 0.000000 0.000000 0.100006
									}
								}
							}
						}
					}
					JOINT RightShoulder
					{
						OFFSET -2.625397 0.000000 11.175217
						CHANNELS 6 Xposition Yposition Zposition Zrotation Yrotation Xrotation
						JOINT RightArm
						{
							OFFSET 0.000000 0.000000 10.434723
							CHANNELS 6 Xposition Yposition Zposition Zrotation Yrotation Xrotation
							JOINT RightForeArm
							{
								OFFSET 0.000000 0.000000 29.628418
								CHANNELS 6 Xposition Yposition Zposition Zrotation Yrotation Xrotation
								JOINT RightHand
								{
									OFFSET 0.000000 0.000000 22.857605
									CHANNELS 6 Xposition Yposition Zposition Zrotation Yrotation Xrotation
									JOINT RightHandThumb1
									{
										OFFSET -2.867310 -2.944275 3.959564
										CHANNELS 6 Xposition Yposition Zposition Zrotation Yrotation Xrotation
										JOINT RightHandThumb2
										{
											OFFSET 0.000000 0.000000 3.350403
											CHANNELS 6 Xposition Yposition Zposition Zrotation Yrotation Xrotation
											JOINT RightHandThumb3
											{
												OFFSET 0.000000 0.000000 3.756516
												CHANNELS 6 Xposition Yposition Zposition Zrotation Yrotation Xrotation
												JOINT RightHandThumb4
												{
													OFFSET 0.000000 0.000000 3.147339
													CHANNELS 6 Xposition Yposition Zposition Zrotation Yrotation Xrotation
													End Site
													{
														OFFSET 0.000000 0.000000 0.100006
													}
												}
											}
										}
									}
									JOINT RightHandIndex1
									{
										OFFSET -0.086761 -2.345276 10.030899
										CHANNELS 6 Xposition Yposition Zposition Zrotation Yrotation Xrotation
										JOINT RightHandIndex2
										{
											OFFSET 0.000000 0.000000 4.061096
											CHANNELS 6 Xposition Yposition Zposition Zrotation Yrotation Xrotation
											JOINT RightHandIndex3
											{
												OFFSET 0.000000 0.000000 3.248871
												CHANNELS 6 Xposition Yposition Zposition Zrotation Yrotation Xrotation
												JOINT RightHandIndex4
												{
													OFFSET 0.000000 0.000000 2.639709
													CHANNELS 6 Xposition Yposition Zposition Zrotation Yrotation Xrotation
													End Site
													{
														OFFSET 0.000000 0.000000 0.100006
													}
												}
											}
										}
									}
									JOINT RightHandMiddle1
									{
										OFFSET 0.104095 -0.006775 9.502945
										CHANNELS 6 Xposition Yposition Zposition Zrotation Yrotation Xrotation
										JOINT RightHandMiddle2
										{
											OFFSET 0.000000 0.000000 4.568726
											CHANNELS 6 Xposition Yposition Zposition Zrotation Yrotation Xrotation
											JOINT RightHandMiddle3
											{
												OFFSET 0.000000 0.000000 3.654984
												CHANNELS 6 Xposition Yposition Zposition Zrotation Yrotation Xrotation
												JOINT RightHandMiddle4
												{
													OFFSET 0.000000 0.000000 2.741241
													CHANNELS 6 Xposition Yposition Zposition Zrotation Yrotation Xrotation
													End Site
													{
														OFFSET 0.000000 0.000000 0.100006
													}
												}
											}
										}
									}
									JOINT RightHandRing1
									{
										OFFSET 0.086761 2.267456 8.921707
										CHANNELS 6 Xposition Yposition Zposition Zrotation Yrotation Xrotation
										JOINT RightHandRing2
										{
											OFFSET 0.000000 0.000000 4.061096
											CHANNELS 6 Xposition Yposition Zposition Zrotation Yrotation Xrotation
											JOINT RightHandRing3
											{
												OFFSET 0.000000 0.000000 3.654984
												CHANNELS 6 Xposition Yposition Zposition Zrotation Yrotation Xrotation
												JOINT RightHandRing4
												{
													OFFSET 0.000000 0.000000 2.741241
													CHANNELS 6 Xposition Yposition Zposition Zrotation Yrotation Xrotation
													End Site
													{
														OFFSET 0.000000 0.000000 0.100006
													}
												}
											}
										}
									}
									JOINT RightHandPinky1
									{
										OFFSET -0.173492 4.467224 7.976990
										CHANNELS 6 Xposition Yposition Zposition Zrotation Yrotation Xrotation
										JOINT RightHandPinky2
										{
											OFFSET 0.000000 0.000000 3.350403
											CHANNELS 6 Xposition Yposition Zposition Zrotation Yrotation Xrotation
											JOINT RightHandPinky3
											{
												OFFSET 0.000000 0.000000 2.842758
												CHANNELS 6 Xposition Yposition Zposition Zrotation Yrotation Xrotation
												JOINT RightHandPinky4
												{
													OFFSET 0.000000 0.000000 2.639709
													CHANNELS 6 Xposition Yposition Zposition Zrotation Yrotation Xrotation
													End Site
													{
														OFFSET 0.000000 0.000000 0.100006
													}
												}
											}
										}
									}
									JOINT RightForeArmEnd
									{
										OFFSET 0.000000 0.000000 0.000000
										CHANNELS 6 Xposition Yposition Zposition Zrotation Yrotation Xrotation
										End Site
										{
											OFFSET 0.000000 0.000000 0.100006
										}
									}
								}
								JOINT RightArmEnd
								{
									OFFSET 0.000000 0.000000 0.000000
									CHANNELS 6 Xposition Yposition Zposition Zrotation Yrotation Xrotation
									End Site
									{
										OFFSET 0.000000 0.000000 0.100006
									}
								}
							}
						}
					}
					JOINT LeftShoulder
					{
						OFFSET 2.625397 0.000000 11.175217
						CHANNELS 6 Xposition Yposition Zposition Zrotation Yrotation Xrotation
						JOINT LeftArm
						{
							OFFSET 0.000000 0.000000 10.813629
							CHANNELS 6 Xposition Yposition Zposition Zrotation Yrotation Xrotation
							JOINT LeftForeArm
							{
								OFFSET 0.000000 0.000000 28.724777
								CHANNELS 6 Xposition Yposition Zposition Zrotation Yrotation Xrotation
								JOINT LeftHand
								{
									OFFSET 0.644379 0.328857 25.716171
									CHANNELS 6 Xposition Yposition Zposition Zrotation Yrotation Xrotation
									JOINT LeftHandThumb1
									{
										OFFSET 2.867310 -2.944275 3.959564
										CHANNELS 6 Xposition Yposition Zposition Zrotation Yrotation Xrotation
										JOINT LeftHandThumb2
										{
											OFFSET 0.000000 0.000000 3.350403
											CHANNELS 6 Xposition Yposition Zposition Zrotation Yrotation Xrotation
											JOINT LeftHandThumb3
											{
												OFFSET 0.000000 0.000000 3.756516
												CHANNELS 6 Xposition Yposition Zposition Zrotation Yrotation Xrotation
												JOINT LeftHandThumb4
												{
													OFFSET 0.000000 0.000000 3.100006
													CHANNELS 6 Xposition Yposition Zposition Zrotation Yrotation Xrotation
													End Site
													{
														OFFSET 0.000000 0.000000 0.100006
													}
												}
											}
										}
									}
									JOINT LeftHandIndex1
									{
										OFFSET 0.086761 -2.345276 10.030899
										CHANNELS 6 Xposition Yposition Zposition Zrotation Yrotation Xrotation
										JOINT LeftHandIndex2
										{
											OFFSET 0.000000 0.000000 4.061096
											CHANNELS 6 Xposition Yposition Zposition Zrotation Yrotation Xrotation
											JOINT LeftHandIndex3
											{
												OFFSET 0.000000 0.000000 3.248871
												CHANNELS 6 Xposition Yposition Zposition Zrotation Yrotation Xrotation
												JOINT LeftHandIndex4
												{
													OFFSET 0.000000 0.000000 2.639709
													CHANNELS 6 Xposition Yposition Zposition Zrotation Yrotation Xrotation
													End Site
													{
														OFFSET 0.000000 0.000000 0.100006
													}
												}
											}
										}
									}
									JOINT LeftHandMiddle1
									{
										OFFSET -0.104095 -0.006775 9.502945
										CHANNELS 6 Xposition Yposition Zposition Zrotation Yrotation Xrotation
										JOINT LeftHandMiddle2
										{
											OFFSET 0.000000 0.000000 4.568726
											CHANNELS 6 Xposition Yposition Zposition Zrotation Yrotation Xrotation
											JOINT LeftHandMiddle3
											{
												OFFSET 0.000000 0.000000 3.654984
												CHANNELS 6 Xposition Yposition Zposition Zrotation Yrotation Xrotation
												JOINT LeftHandMiddle4
												{
													OFFSET 0.000000 0.000000 2.741241
													CHANNELS 6 Xposition Yposition Zposition Zrotation Yrotation Xrotation
													End Site
													{
														OFFSET 0.000000 0.000000 0.100006
													}
												}
											}
										}
									}
									JOINT LeftHandRing1
									{
										OFFSET -0.086761 2.267456 8.921707
										CHANNELS 6 Xposition Yposition Zposition Zrotation Yrotation Xrotation
										JOINT LeftHandRing2
										{
											OFFSET 0.000000 0.000000 4.061096
											CHANNELS 6 Xposition Yposition Zposition Zrotation Yrotation Xrotation
											JOINT LeftHandRing3
											{
												OFFSET 0.000000 0.000000 3.654984
												CHANNELS 6 Xposition Yposition Zposition Zrotation Yrotation Xrotation
												JOINT LeftHandRing4
												{
													OFFSET 0.000000 0.000000 2.741241
													CHANNELS 6 Xposition Yposition Zposition Zrotation Yrotation Xrotation
													End Site
													{
														OFFSET 0.000000 0.000000 0.100006
													}
												}
											}
										}
									}
									JOINT LeftHandPinky1
									{
										OFFSET 0.173492 4.467224 7.976990
										CHANNELS 6 Xposition Yposition Zposition Zrotation Yrotation Xrotation
										JOINT LeftHandPinky2
										{
											OFFSET 0.000000 0.000000 3.350403
											CHANNELS 6 Xposition Yposition Zposition Zrotation Yrotation Xrotation
											JOINT LeftHandPinky3
											{
												OFFSET 0.000000 0.000000 2.842758
												CHANNELS 6 Xposition Yposition Zposition Zrotation Yrotation Xrotation
												JOINT LeftHandPinky4
												{
													OFFSET 0.000000 0.000000 2.639709
													CHANNELS 6 Xposition Yposition Zposition Zrotation Yrotation Xrotation
													End Site
													{
														OFFSET 0.000000 0.000000 0.100006
													}
												}
											}
										}
									}
									JOINT LeftForeArmEnd
									{
										OFFSET 0.000000 0.000000 0.000000
										CHANNELS 6 Xposition Yposition Zposition Zrotation Yrotation Xrotation
										End Site
										{
											OFFSET 0.000000 0.000000 0.100006
										}
									}
								}
								JOINT LeftArmEnd
								{
									OFFSET 0.000000 0.000000 0.000000
									CHANNELS 6 Xposition Yposition Zposition Zrotation Yrotation Xrotation
									End Site
									{
										OFFSET 0.000000 0.000000 0.100006
									}
								}
							}
						}
					}
				}
			}
		}
	}
	JOINT RightUpLeg
	{
		OFFSET -11.289948 0.000000 0.000000
		CHANNELS 6 Xposition Yposition Zposition Zrotation Yrotation Xrotation
		JOINT RightLeg
		{
			OFFSET 0.000000 0.000000 -38.200321
			CHANNELS 6 Xposition Yposition Zposition Zrotation Yrotation Xrotation
			JOINT RightFoot
			{
				OFFSET 0.000000 0.000000 -39.900856
				CHANNELS 6 Xposition Yposition Zposition Zrotation Yrotation Xrotation
				JOINT RightToeBase
				{
					OFFSET 0.000000 -15.261658 0.000001
					CHANNELS 6 Xposition Yposition Zposition Zrotation Yrotation Xrotation
					JOINT RightToeBaseEnd
					{
						OFFSET 0.000000 -7.370728 0.000001
						CHANNELS 6 Xposition Yposition Zposition Zrotation Yrotation Xrotation
						End Site
						{
							OFFSET 0.000000 0.000000 0.100000
						}
					}
				}
				JOINT RightLegEnd
				{
					OFFSET 0.000000 0.000000 0.000000
					CHANNELS 6 Xposition Yposition Zposition Zrotation Yrotation Xrotation
					End Site
					{
						OFFSET 0.000000 0.000000 0.100000
					}
				}
			}
			JOINT RightUpLegEnd
			{
				OFFSET 0.000000 0.000000 0.000000
				CHANNELS 6 Xposition Yposition Zposition Zrotation Yrotation Xrotation
				End Site
				{
					OFFSET 0.000000 0.000000 0.099998
				}
			}
		}
	}
	JOINT LeftUpLeg
	{
		OFFSET 11.315674 0.000000 0.000000
		CHANNELS 6 Xposition Yposition Zposition Zrotation Yrotation Xrotation
		JOINT LeftLeg
		{
			OFFSET 0.000000 0.000000 -38.200321
			CHANNELS 6 Xposition Yposition Zposition Zrotation Yrotation Xrotation
			JOINT LeftFoot
			{
				OFFSET 0.000000 0.000000 -39.900856
				CHANNELS 6 Xposition Yposition Zposition Zrotation Yrotation Xrotation
				JOINT LeftToeBase
				{
					OFFSET 0.000000 -15.261658 0.000001
					CHANNELS 6 Xposition Yposition Zposition Zrotation Yrotation Xrotation
					JOINT LeftToeBaseEnd
					{
						OFFSET 0.000000 -7.539978 0.000001
						CHANNELS 6 Xposition Yposition Zposition Zrotation Yrotation Xrotation
						End Site
						{
							OFFSET 0.000000 0.000000 0.100000
						}
					}
				}
				JOINT LeftLegEnd
				{
					OFFSET 0.000000 0.000000 0.000000
					CHANNELS 6 Xposition Yposition Zposition Zrotation Yrotation Xrotation
					End Site
					{
						OFFSET 0.000000 0.000000 0.100000
					}
				}
			}
			JOINT LeftUpLegEnd
			{
				OFFSET 0.000000 0.000000 0.000000
				CHANNELS 6 Xposition Yposition Zposition Zrotation Yrotation Xrotation
				End Site
				{
					OFFSET 0.000000 0.000000 0.099998
				}
			}
		}
	}
}
MOTION
Frames: 2
Frame Time: 0.016667
34.730713 6.726501 73.534897 -44.985265 -1.531730 -2.553336 0.000004 2.080098 8.814244 1.030182 2.623621 12.589215 0.000012 0.000014 8.844148 0.301548 2.170401 7.256267 0.000001 0.000017 11.682273 -6.199488 0.265794 1.818071 0.000012 -0.000021 11.746689 -2.700486 -0.624581 -1.706801 0.000007 -0.000026 17.658272 14.706376 1.584951 -3.319594 -0.000008 0.000009 5.101521 18.786352 -4.207914 -6.975839 0.000009 0.000024 5.101553 -1.153758 2.769523 -18.161360 -0.000004 0.000015 11.655062 -0.000002 -0.000000 -0.000000 -2.625412 0.000004 11.175227 5.616876 -86.378616 -0.145711 -0.000008 -0.000032 10.434731 55.678698 -65.456073 -54.313958 0.000000 0.000000 29.628445 72.228376 0.322728 6.843802 0.000057 -0.000084 22.857574 35.391889 22.064091 -0.726106 -2.867332 -2.944275 3.959572 32.750556 -12.655500 59.096771 -0.000006 0.000010 3.350364 -2.747841 2.501745 -5.369882 0.000005 0.000031 3.756495 -1.883152 1.764803 -3.715854 0.000003 0.000000 3.147319 -0.000000 -0.000001 -0.000000 -0.086769 -2.345289 10.030899 -3.250944 32.468230 25.242725 0.000005 -0.000023 4.061102 0.706892 0.000005 -0.000369 0.000010 -0.000028 3.248914 0.195737 -0.000006 0.002521 0.000012 0.000014 2.639714 -0.000002 -0.000002 0.000002 0.104073 -0.006769 9.502945 1.020499 25.678451 22.675072 0.000002 0.000018 4.568730 0.720724 0.000093 0.000289 -0.000010 0.000009 3.655010 0.189962 -0.000002 -0.000007 0.000000 -0.000008 2.741247 0.000001 -0.000002 0.000004 0.086740 2.267445 8.921738 7.720895 16.407670 19.290705 -0.000004 0.000017 4.061123 -1.167275 -0.068882 0.001722 -0.000008 -0.000024 3.654996 -0.131908 0.036034 -0.019489 0.000008 -0.000007 2.741252 0.000001 -0.000001 -0.000000 -0.173534 4.467236 7.976986 15.199946 9.786391 13.523922 -0.000006 0.000002 3.350412 -2.086916 -0.000017 -0.000205 -0.000001 -0.000018 2.842741 -0.072649 0.000001 0.080063 -0.000002 0.000012 2.639697 -0.000001 0.000002 0.000001 -0.000038 0.000017 -0.000002 -0.000002 0.000000 -0.000003 0.000017 0.000001 -0.000008 -0.000001 0.000002 0.000002 2.625385 -0.000007 11.175202 -7.539439 83.023360 -0.260654 0.000015 -0.000010 10.813644 -68.066619 58.588393 -62.716737 0.000011 0.000069 28.724789 -37.696367 9.304193 27.041453 0.644341 0.328873 25.716158 -58.561386 -45.571558 -2.222275 2.867256 -2.944290 3.959549 -33.202854 11.604889 61.041851 -0.000036 -0.000023 3.350400 0.590032 -0.577987 -1.182120 -0.000009 -0.000015 3.756536 0.408491 -0.402620 -0.820794 0.000002 -0.000004 3.099997 0.000001 0.000001 -0.000000 0.086754 -2.345299 10.030869 -17.646499 -36.283167 39.967969 0.000008 0.000021 4.061096 0.612421 0.000594 -0.000357 -0.000015 -0.000014 3.248883 0.105281 -0.000283 0.008965 -0.000000 0.000029 2.639715 -0.000004 -0.000002 0.000002 -0.104099 -0.006794 9.502930 -10.739862 -33.138657 30.079262 -0.000013 -0.000010 4.568720 0.758680 -0.000007 -0.000333 -0.000009 0.000011 3.654981 0.222151 -0.000002 0.003968 0.000004 0.000022 2.741222 -0.000003 -0.000001 -0.000000 -0.086769 2.267460 8.921692 -0.182532 -27.396177 18.838644 -0.000006 -0.000015 4.061114 -1.097104 0.135762 -0.002484 0.000009 -0.000007 3.655000 -0.121254 -0.071387 0.000634 -0.000009 0.000030 2.741248 -0.000002 -0.000000 0.000001 0.173485 4.467171 7.976997 10.120068 -21.365020 9.828067 0.000034 0.000031 3.350387 -2.089591 0.028016 -0.001077 0.000012 0.000010 2.842780 -0.075628 -0.015029 -0.005358 -0.000000 -0.000000 2.639715 -0.000002 -0.000001 -0.000003 -0.000006 0.000002 0.000009 0.000002 0.000001 0.000001 0.000025 0.000003 0.000001 0.000001 0.000001 0.000004 -11.289933 -0.000004 0.000053 14.068062 18.208429 -37.924700 -0.000031 -0.000004 -38.200317 -0.474304 0.943141 63.300704 -0.000021 -0.000133 -39.900879 -9.164387 -14.609426 3.509682 0.000005 -15.261732 0.000028 1.956796 1.389745 -17.435919 0.000014 -7.370750 0.000002 0.000004 0.000001 -0.000000 -0.000018 -0.000016 0.000001 0.000003 -0.000000 -0.000000 -0.000039 -0.000058 -0.000002 -0.000001 0.000000 -0.000002 11.315627 0.000008 0.000018 -10.000571 1.142742 -26.159940 -0.000028 0.000005 -38.200317 -0.289205 0.888403 71.966199 -0.000022 -0.000104 -39.900826 20.080596 8.446944 -13.781969 -0.000004 -15.261699 0.000019 -1.324218 0.894765 -19.110845 -0.000025 -7.540023 0.000003 -0.000003 -0.000001 -0.000000 -0.000002 -0.000016 0.000001 0.000003 0.000000 0.000001 -0.000041 0.000071 -0.000005 -0.000001 -0.000001 0.000001 
34.325165 6.909790 73.182320 -45.250539 -1.593120 -2.515792 0.000014 2.080077 8.814240 0.986962 2.565407 12.674950 -0.000006 -0.000033 8.844139 0.319954 2.180824 7.419109 -0.000002 -0.000012 11.682267 -6.501119 0.325062 1.813484 -0.000035 0.000026 11.746714 -2.870080 -0.474196 -1.794540 -0.000000 0.000010 17.658249 14.841088 1.751460 -3.372194 -0.000004 -0.000010 5.101549 18.910801 -4.141388 -7.003499 -0.000012 -0.000059 5.101530 -1.201457 2.895122 -17.971138 -0.000002 0.000002 11.655117 -0.000000 0.000000 0.000000 -2.625406 0.000013 11.175185 5.756276 -86.379661 -0.171625 -0.000011 0.000015 10.434734 55.456338 -65.934862 -54.479300 0.000033 0.000009 29.628414 77.733051 0.152413 4.939628 0.000031 -0.000057 22.857588 32.098310 23.249525 -0.456623 -2.867302 -2.944275 3.959557 32.750532 -12.655519 59.096921 -0.000010 -0.000023 3.350364 -2.747825 2.501741 -5.370100 0.000003 -0.000011 3.756521 -1.883127 1.764852 -3.715768 -0.000008 0.000003 3.147326 -0.000000 0.000000 -0.000000 -0.086761 -2.345297 10.030899 -3.336170 32.141292 24.519411 -0.000013 0.000030 4.061122 0.707468 -0.000131 -0.000366 0.000012 -0.000028 3.248895 0.196378 -0.000006 0.002547 0.000000 -0.000005 2.639710 0.000001 0.000000 -0.000000 0.104095 -0.006780 9.502945 0.984309 25.531216 22.082604 0.000008 0.000014 4.568741 0.721178 0.000120 0.000288 0.000011 0.000013 3.655011 0.190382 -0.000002 -0.000006 0.000009 -0.000005 2.741270 0.000001 -0.000002 0.000003 0.086765 2.267479 8.921738 7.731364 16.447242 18.686180 -0.000011 0.000024 4.061113 -1.167271 0.000005 0.000314 -0.000004 0.000005 3.655003 -0.131909 0.000004 -0.019316 0.000000 0.000007 2.741250 -0.000001 -0.000002 0.000001 -0.173489 4.467247 7.976982 15.256476 10.026684 12.845755 0.000001 0.000014 3.350416 -2.086207 -0.000017 -0.000200 -0.000011 -0.000016 2.842749 -0.072392 0.000141 0.079402 -0.000000 0.000013 2.639718 -0.000001 0.000002 0.000002 0.000001 0.000017 0.000002 -0.000000 -0.000000 -0.000000 0.000003 -0.000019 -0.000015 0.000003 0.000001 0.000004 2.625393 -0.000033 11.175193 -7.644428 83.206362 -0.276404 0.000011 -0.000013 10.813618 -70.535357 59.358462 -63.927121 0.000078 0.000023 28.724792 -37.710588 8.996113 26.807260 0.644310 0.328857 25.716145 -60.597438 -45.835224 -1.228047 2.867310 -2.944305 3.959534 -33.202847 11.604883 61.042002 0.000010 0.000014 3.350419 0.590028 -0.577979 -1.182370 -0.000011 -0.000002 3.756508 0.408485 -0.402638 -0.820692 -0.000003 0.000002 3.100003 -0.000000 -0.000000 0.000000 0.086761 -2.345314 10.030899 -17.409765 -35.760039 39.902631 -0.000014 0.000003 4.061112 0.613560 -0.044237 -0.000840 0.000011 0.000008 3.248873 0.106039 0.024469 0.008998 0.000005 0.000008 2.639720 -0.000000 0.000001 0.000003 -0.104092 -0.006779 9.502945 -10.564387 -32.562131 30.047133 0.000012 -0.000025 4.568722 0.757298 -0.000006 -0.000332 0.000009 -0.000004 3.654980 0.221100 -0.000003 0.003921 -0.000001 0.000001 2.741244 -0.000001 0.000000 -0.000002 -0.086754 2.267463 8.921692 -0.065210 -26.761260 18.878822 -0.000005 0.000026 4.061108 -1.098141 0.076786 -0.001362 -0.000007 -0.000011 3.654999 -0.122554 -0.040209 0.000573 0.000001 0.000026 2.741265 -0.000002 -0.000001 0.000002 0.173492 4.467209 7.977013 10.188498 -20.772822 9.905231 0.000012 -0.000029 3.350398 -2.090310 -0.052313 0.001848 0.000006 -0.000023 2.842783 -0.076125 0.028337 -0.005348 0.000005 0.000012 2.639699 -0.000001 -0.000002 0.000003 0.000006 -0.000004 0.000035 -0.000000 -0.000002 0.000001 0.000000 0.000009 -0.000017 0.000000 -0.000001 0.000003 -11.289951 0.000000 0.000038 13.607786 17.918550 -38.908818 -0.000044 -0.000016 -38.200291 -0.462026 0.974773 64.638650 -0.000032 0.000050 -39.900864 -8.516430 -14.121308 2.737827 0.000031 -15.261816 0.000040 1.952628 1.346164 -17.299845 0.000009 -7.370776 0.000002 -0.000002 0.000001 0.000001 -0.000026 -0.000072 0.000001 0.000002 -0.000000 -0.000000 -0.000037 0.000009 -0.000004 -0.000001 0.000001 -0.000001 11.315635 -0.000011 0.000038 -9.745305 0.878511 -26.287843 -0.000037 0.000003 -38.200352 -0.271968 0.873376 72.701695 -0.000032 -0.000023 -39.900841 19.900871 8.846178 -14.283453 0.000001 -15.261750 0.000025 -1.356340 0.862447 -19.108603 -0.000035 -7.539931 0.000003 0.000003 -0.000001 0.000000 -0.000006 -0.000013 0.000001 0.000002 -0.000000 0.000001 -0.000035 -0.000005 -0.000001 0.000001 -0.000001 0.000002 
